<svg xmlns="http://www.w3.org/2000/svg" xmlns:xlink="http://www.w3.org/1999/xlink" viewBox="0 0 277.93 48.63"><defs><style>.a{fill:#565653;}.b{fill:url(#a);}.c{fill:url(#b);}.d{fill:url(#c);}</style><linearGradient id="a" x1="343.79" y1="182.78" x2="406.92" y2="182.78" gradientUnits="userSpaceOnUse"><stop offset="0" stop-color="#e31b22"/><stop offset="1" stop-color="#f15d22"/></linearGradient><linearGradient id="b" x1="293.18" y1="182.78" x2="356.31" y2="182.78" xlink:href="#a"/><linearGradient id="c" x1="242.58" y1="182.78" x2="305.71" y2="182.78" xlink:href="#a"/></defs><title>logo_last</title><path class="a" d="M167,206.69V158.87h12.19v37.34h20.83v10.48Z" transform="translate(-167.04 -158.47)"/><path class="a" d="M236.63,201.72c-3.62,3.49-7.8,5.37-13.87,5.37s-10.24-1.88-13.87-5.37c-5.23-5-5-11.75-5-18.94s-.21-13.9,5-18.94c3.62-3.49,7.8-5.37,13.87-5.37s10.24,1.88,13.87,5.37c5.23,5,5,11.75,5,18.94S241.85,196.69,236.63,201.72Zm-9-30.69a6.75,6.75,0,0,0-9.75,0c-1.11,1.41-1.81,3-1.81,11.75s.7,10.28,1.81,11.69a6.61,6.61,0,0,0,9.75,0c1.11-1.41,1.81-3,1.81-11.69S228.75,172.44,227.64,171Z" transform="translate(-167.04 -158.47)"/><path class="b" d="M393.33,206.69h-10l-8-23.57-8,23.57h-9.89l-13.66-47.82h12.75L363,184.13l8-25.25h8.64l8,25.25,6.48-25.25h12.75Z" transform="translate(-167.04 -158.47)"/><path class="c" d="M342.72,206.69h-10l-8-23.57-8,23.57h-9.89l-13.66-47.82h12.75l6.48,25.25,8-25.25h8.64l8,25.25,6.48-25.25h12.75Z" transform="translate(-167.04 -158.47)"/><path class="d" d="M292.12,206.69h-10l-8-23.57-8,23.57h-9.89l-13.66-47.82h12.75l6.48,25.25,8-25.25h8.64l8,25.25L293,158.87h12.75Z" transform="translate(-167.04 -158.47)"/><path class="a" d="M411.24,206.69V158.87H445v10.48H423.43v8h18.39v10.48H423.43v8.4H445v10.48Z" transform="translate(-167.04 -158.47)"/></svg>